<svg xmlns="http://www.w3.org/2000/svg" width="1626.98828125" height="428.67694091796875" viewBox="-521.1474609375 116.5751953125 1626.98828125 428.67694091796875"><title>Neo4j Graph Visualization</title><desc>Created using Neo4j (http://www.neo4j.com/)</desc><g class="layer relationships"><g class="relationship" transform="translate(-261.13394651947874 516.2521522658135) rotate(195.92381308201635)"><path class="outline" fill="#4C8EDA" stroke="none" d="M 25 0.5 L 76.42059013490864 0.5 L 76.42059013490864 -0.5 L 25 -0.5 Z M 156.81121513490865 0.5 L 208.23180526981727 0.5 L 208.23180526981727 3.5 L 215.23180526981727 0 L 208.23180526981727 -3.5 L 208.23180526981727 -0.5 L 156.81121513490865 -0.5 Z"/><text text-anchor="middle" pointer-events="none" font-size="8px" fill="#000000" x="116.61590263490864" y="3" transform="rotate(180 116.61590263490864 0)" font-family="sans-serif">PARTECIPATES_TO</text></g><g class="relationship" transform="translate(-492.1474242819039 450.34241584315055) rotate(337.88150110850086)"><path class="outline" fill="#4C8EDA" stroke="none" d="M 24.018736134675446,-6.953439040707552 L 24.277555179777966,-5.987513214418485 A 458.5511176275047 458.5511176275047 0 0 1 109.34452882820808,-20.378512253650342 L 109.27122230369119,-21.375821710871776 A 459.5511176275047 459.5511176275047 0 0 0 24.018736134675446,-6.953439040707552 Z M 170.9977944132831,-21.756113872502397 L 170.93678166461825,-20.757976885661208 A 458.5511176275047 458.5511176275047 0 0 1 256.1746145176918,-7.4162112768157 L 255.43392088993247,-4.509086761113503 L 263.08135399229013,-6.172446897994314 L 257.1622060213709,-11.292377297751962 L 256.4215123936116,-8.385252782049765 A 459.5511176275047 459.5511176275047 0 0 0 170.9977944132831,-21.756113872502397"/><text text-anchor="middle" pointer-events="none" font-size="8px" fill="#000000" x="140.1311963489592" y="-19.10355182728091" font-family="sans-serif">STARTS_WITH</text></g><g class="relationship" transform="translate(-492.1474242819039 450.34241584315055) rotate(293.80831230558806)"><path class="outline" fill="#4C8EDA" stroke="none" d="M 25 0.5 L 90.17796659785358 0.5 L 90.17796659785358 -0.5 L 25 -0.5 Z M 168.94749784785358 0.5 L 234.12546444570717 0.5 L 234.12546444570717 3.5 L 241.12546444570717 0 L 234.12546444570717 -3.5 L 234.12546444570717 -0.5 L 168.94749784785358 -0.5 Z"/><text text-anchor="middle" pointer-events="none" font-size="8px" fill="#000000" x="129.56273222285358" y="3" font-family="sans-serif">TAKES_PLACE_ON</text></g><g class="relationship" transform="translate(-225.98381325247544 342.16446316762443) rotate(353.5144592303627)"><path class="outline" fill="#4C8EDA" stroke="none" d="M 24.018736134675446,-6.953439040707552 L 24.277555179777966,-5.987513214418485 A 311.3705303164439 311.3705303164439 0 0 1 69.40523757817084,-14.571352837732718 L 69.29135094639764,-15.564846589652404 A 312.3705303164439 312.3705303164439 0 0 0 24.018736134675446,-6.953439040707552 Z M 135.2871664016788,-16.11236556643547 L 135.18977889248734,-15.11711902760527 A 311.3705303164439 311.3705303164439 0 0 1 180.45366748329053,-7.2831921088527585 L 179.72539539314963,-4.372930992952364 L 187.36565543541494,-6.068934084507405 L 181.42469693681173,-11.163540263386619 L 180.69642484667082,-8.253279147486223 A 312.3705303164439 312.3705303164439 0 0 0 135.2871664016788,-16.11236556643547"/><text text-anchor="middle" pointer-events="none" font-size="8px" fill="#000000" x="102.27890602238762" y="-14.086474584485131" font-family="sans-serif">FOLLOWED_BY</text></g><g class="relationship" transform="translate(-225.98381325247544 342.16446316762443) rotate(306.9807073729119)"><path class="outline" fill="#4C8EDA" stroke="none" d="M 25 0.5 L 59.71834370998897 0.5 L 59.71834370998897 -0.5 L 25 -0.5 Z M 147.51912495998897 0.5 L 182.23746866997794 0.5 L 182.23746866997794 3.5 L 189.23746866997794 0 L 182.23746866997794 -3.5 L 182.23746866997794 -0.5 L 147.51912495998897 -0.5 Z"/><text text-anchor="middle" pointer-events="none" font-size="8px" fill="#000000" x="103.61873433498897" y="3" font-family="sans-serif">EXPRESSES_INTENT</text></g><g class="relationship" transform="translate(-225.98381325247544 342.16446316762443) rotate(517.8815011085009)"><path class="outline" fill="#4C8EDA" stroke="none" d="M 24.018736134675446,-6.953439040707552 L 24.277555179777966,-5.987513214418485 A 458.5511176275047 458.5511176275047 0 0 1 117.61316033245606,-20.911230430183423 L 117.55788589026626,-21.909701629588085 A 459.5511176275047 459.5511176275047 0 0 0 24.018736134675446,-6.953439040707552 Z M 162.70518174663619,-22.187850280099724 L 162.66221402571375,-21.188773819082485 A 458.5511176275047 458.5511176275047 0 0 1 256.1746145176918,-7.4162112768157 L 255.43392088993247,-4.509086761113503 L 263.08135399229013,-6.172446897994314 L 257.1622060213709,-11.292377297751962 L 256.4215123936116,-8.385252782049765 A 459.5511176275047 459.5511176275047 0 0 0 162.70518174663619,-22.187850280099724"/><text text-anchor="middle" pointer-events="none" font-size="8px" fill="#000000" x="140.1311963489592" y="-19.10355182728091" transform="rotate(180 140.1311963489592 -22.10355182728091)" font-family="sans-serif">FOLLOWS</text></g><g class="relationship" transform="translate(-15.72025298960807 318.2617061602833) rotate(357.2815638664026)"><path class="outline" fill="#4C8EDA" stroke="none" d="M 24.018736134675446,-6.953439040707552 L 24.277555179777966,-5.987513214418485 A 384.9982433411723 384.9982433411723 0 0 1 88.28608737517615,-17.453170225354995 L 88.19352501644161,-18.448877114828747 A 385.9982433411723 385.9982433411723 0 0 0 24.018736134675446,-6.953439040707552 Z M 154.21238333986054,-18.91572258752643 L 154.13391160851225,-17.91880624831873 A 384.9982433411723 384.9982433411723 0 0 1 218.29819096493202,-7.3595099094004715 L 217.5627920920041,-4.451041498415692 L 225.20718373605115,-6.1283239410660935 L 219.27872279550257,-11.23746779071351 L 218.54332392257464,-8.328999379728732 A 385.9982433411723 385.9982433411723 0 0 0 154.21238333986054,-18.91572258752643"/><text text-anchor="middle" pointer-events="none" font-size="8px" fill="#000000" x="121.19649041050991" y="-16.596372247920783" font-family="sans-serif">FOLLOWED_BY</text></g><g class="relationship" transform="translate(-15.72025298960807 318.2617061602833) rotate(241.06721919180546)"><path class="outline" fill="#4C8EDA" stroke="none" d="M 25 0.5 L 36.717717118841804 0.5 L 36.717717118841804 -0.5 L 25 -0.5 Z M 124.5184983688418 0.5 L 136.2362154876836 0.5 L 136.2362154876836 3.5 L 143.2362154876836 0 L 136.2362154876836 -3.5 L 136.2362154876836 -0.5 L 124.5184983688418 -0.5 Z"/><text text-anchor="middle" pointer-events="none" font-size="8px" fill="#000000" x="80.6181077438418" y="3" transform="rotate(180 80.6181077438418 0)" font-family="sans-serif">EXPRESSES_INTENT</text></g><g class="relationship" transform="translate(-15.72025298960807 318.2617061602833) rotate(533.5144592303627)"><path class="outline" fill="#4C8EDA" stroke="none" d="M 24.018736134675446,-6.953439040707552 L 24.277555179777966,-5.987513214418485 A 311.3705303164439 311.3705303164439 0 0 1 79.78779062706747,-15.585632503073896 L 79.7072486828546,-16.582383723400426 A 312.3705303164439 312.3705303164439 0 0 0 24.018736134675446,-6.953439040707552 Z M 124.85582001899962,-16.956948374365822 L 124.79182665352624,-15.95899805036396 A 311.3705303164439 311.3705303164439 0 0 1 180.45366748329053,-7.2831921088527585 L 179.72539539314963,-4.372930992952364 L 187.36565543541494,-6.068934084507405 L 181.42469693681173,-11.163540263386619 L 180.69642484667082,-8.253279147486223 A 312.3705303164439 312.3705303164439 0 0 0 124.85582001899962,-16.956948374365822"/><text text-anchor="middle" pointer-events="none" font-size="8px" fill="#000000" x="102.27890602238762" y="-14.086474584485131" transform="rotate(180 102.27890602238762 -17.08647458448513)" font-family="sans-serif">FOLLOWS</text></g><g class="relationship" transform="translate(233.44345915495296 306.4310905356281) rotate(357.26795292480267)"><path class="outline" fill="#4C8EDA" stroke="none" d="M 24.018736134675446,6.953439040707552 L 24.277555179777966,5.987513214418485 A 416.3777534131125 416.3777534131125 0 0 0 96.34990998451599,18.642473289865734 L 96.26418461267998,19.63879209457815 A 417.3777534131125 417.3777534131125 0 0 1 24.018736134675446,6.953439040707552 Z M 162.28848819368295,20.077997530822188 L 162.2160252024807,19.08062642892179 A 416.3777534131125 416.3777534131125 0 0 0 234.4503603236032,7.385620177509215 L 233.71252326268387,4.4777693437259725 L 241.35831844591735,6.148642174327944 L 235.43414307149567,11.262754622553539 L 234.69630601057634,8.354903788770295 A 417.3777534131125 417.3777534131125 0 0 1 162.28848819368295,20.077997530822188"/><text text-anchor="middle" pointer-events="none" font-size="8px" fill="#000000" x="129.27096395183065" y="23.66601769185661" font-family="sans-serif">FOLLOWED_BY</text></g><g class="relationship" transform="translate(233.44345915495296 306.4310905356281) rotate(341.80995503869985)"><path class="outline" fill="#4C8EDA" stroke="none" d="M 25 0.5 L 200.49007187145736 0.5 L 200.49007187145736 -0.5 L 25 -0.5 Z M 254.35335312145736 0.5 L 429.8434249929147 0.5 L 429.8434249929147 3.5 L 436.8434249929147 0 L 429.8434249929147 -3.5 L 429.8434249929147 -0.5 L 254.35335312145736 -0.5 Z"/><text text-anchor="middle" pointer-events="none" font-size="8px" fill="#000000" x="227.42171249645736" y="3" font-family="sans-serif">REFERS_TO</text></g><g class="relationship" transform="translate(233.44345915495296 306.4310905356281) rotate(401.8839460083012)"><path class="outline" fill="#4C8EDA" stroke="none" d="M 25 0.5 L 111.91011064896193 0.5 L 111.91011064896193 -0.5 L 25 -0.5 Z M 165.77339189896193 0.5 L 252.68350254792387 0.5 L 252.68350254792387 3.5 L 259.68350254792387 0 L 252.68350254792387 -3.5 L 252.68350254792387 -0.5 L 165.77339189896193 -0.5 Z"/><text text-anchor="middle" pointer-events="none" font-size="8px" fill="#000000" x="138.84175127396193" y="3" font-family="sans-serif">REFERS_TO</text></g><g class="relationship" transform="translate(233.44345915495296 306.4310905356281) rotate(238.78411821531358)"><path class="outline" fill="#4C8EDA" stroke="none" d="M 25 0.5 L 36.81286032809524 0.5 L 36.81286032809524 -0.5 L 25 -0.5 Z M 124.61364157809524 0.5 L 136.42650190619048 0.5 L 136.42650190619048 3.5 L 143.42650190619048 0 L 136.42650190619048 -3.5 L 136.42650190619048 -0.5 L 124.61364157809524 -0.5 Z"/><text text-anchor="middle" pointer-events="none" font-size="8px" fill="#000000" x="80.71325095309524" y="3" transform="rotate(180 80.71325095309524 0)" font-family="sans-serif">EXPRESSES_INTENT</text></g><g class="relationship" transform="translate(233.44345915495296 306.4310905356281) rotate(537.2815638664026)"><path class="outline" fill="#4C8EDA" stroke="none" d="M 24.018736134675446,-6.953439040707552 L 24.277555179777966,-5.987513214418485 A 384.9982433411723 384.9982433411723 0 0 1 98.68877002710406,-18.27818433319152 L 98.62322774659546,-19.276034126229433 A 385.9982433411723 385.9982433411723 0 0 0 24.018736134675446,-6.953439040707552 Z M 143.77202590038772,-19.595299144606145 L 143.7206018502649,-18.59662223635752 A 384.9982433411723 384.9982433411723 0 0 1 218.29819096493202,-7.3595099094004715 L 217.5627920920041,-4.451041498415692 L 225.20718373605115,-6.1283239410660935 L 219.27872279550257,-11.23746779071351 L 218.54332392257464,-8.328999379728732 A 385.9982433411723 385.9982433411723 0 0 0 143.77202590038772,-19.595299144606145"/><text text-anchor="middle" pointer-events="none" font-size="8px" fill="#000000" x="121.19649041050991" y="-16.596372247920783" transform="rotate(180 121.19649041050991 -19.596372247920783)" font-family="sans-serif">FOLLOWS</text></g><g class="relationship" transform="translate(498.7319900699131 293.77168403321633) rotate(361.95883036594455)"><path class="outline" fill="#4C8EDA" stroke="none" d="M 24.018736134675446,-6.953439040707552 L 24.277555179777966,-5.987513214418485 A 423.3636464805654 423.3636464805654 0 0 1 98.14617063563037,-18.90489464274515 L 98.06183188913148,-19.90133178368228 A 424.3636464805654 424.3636464805654 0 0 0 24.018736134675446,-6.953439040707552 Z M 164.08712591042007,-20.334820091897768 L 164.01587806374854,-19.337361448973297 A 423.3636464805654 423.3636464805654 0 0 1 238.0477360134447,-7.3910188770608585 L 237.309394823879,-4.4832960072208365 L 244.9554795746657,-6.1528432463808755 L 239.03219093286563,-11.267982703514221 L 238.29384974329992,-8.3602598336742 A 424.3636464805654 424.3636464805654 0 0 0 164.08712591042007,-20.334820091897768"/><text text-anchor="middle" pointer-events="none" font-size="8px" fill="#000000" x="131.06931797576615" y="-17.90414448612205" font-family="sans-serif">FOLLOWED_BY</text></g><g class="relationship" transform="translate(498.7319900699131 293.77168403321633) rotate(322.83362792025855)"><path class="outline" fill="#4C8EDA" stroke="none" d="M 25 0.5 L 78.41402210574309 0.5 L 78.41402210574309 -0.5 L 25 -0.5 Z M 132.27730335574307 0.5 L 185.69132546148617 0.5 L 185.69132546148617 3.5 L 192.69132546148617 0 L 185.69132546148617 -3.5 L 185.69132546148617 -0.5 L 132.27730335574307 -0.5 Z"/><text text-anchor="middle" pointer-events="none" font-size="8px" fill="#000000" x="105.34566273074309" y="3" font-family="sans-serif">REFERS_TO</text></g><g class="relationship" transform="translate(498.7319900699131 293.77168403321633) rotate(464.74209181406786)"><path class="outline" fill="#4C8EDA" stroke="none" d="M 25 0.5 L 74.37908555617105 0.5 L 74.37908555617105 -0.5 L 25 -0.5 Z M 128.24236680617105 0.5 L 177.6214523623421 0.5 L 177.6214523623421 3.5 L 184.6214523623421 0 L 177.6214523623421 -3.5 L 177.6214523623421 -0.5 L 128.24236680617105 -0.5 Z"/><text text-anchor="middle" pointer-events="none" font-size="8px" fill="#000000" x="101.31072618117105" y="3" transform="rotate(180 101.31072618117105 0)" font-family="sans-serif">REFERS_TO</text></g><g class="relationship" transform="translate(498.7319900699131 293.77168403321633) rotate(200.43708790306465)"><path class="outline" fill="#4C8EDA" stroke="none" d="M 25 0.5 L 140.73024291392602 0.5 L 140.73024291392602 -0.5 L 25 -0.5 Z M 228.53102416392602 0.5 L 344.26126707785204 0.5 L 344.26126707785204 3.5 L 351.26126707785204 0 L 344.26126707785204 -3.5 L 344.26126707785204 -0.5 L 228.53102416392602 -0.5 Z"/><text text-anchor="middle" pointer-events="none" font-size="8px" fill="#000000" x="184.63063353892602" y="3" transform="rotate(180 184.63063353892602 0)" font-family="sans-serif">EXPRESSES_INTENT</text></g><g class="relationship" transform="translate(498.7319900699131 293.77168403321633) rotate(537.2679529248027)"><path class="outline" fill="#4C8EDA" stroke="none" d="M 24.018736134675446,6.953439040707552 L 24.277555179777966,5.987513214418485 A 416.3777534131125 416.3777534131125 0 0 0 106.75830003747218,19.406756727862046 L 106.69757213480364,20.40491108558308 A 417.3777534131125 417.3777534131125 0 0 1 24.018736134675446,6.953439040707552 Z M 151.8458317471293,20.705245356195462 L 151.7983884326136,19.70637142425619 A 416.3777534131125 416.3777534131125 0 0 0 234.4503603236032,7.385620177509215 L 233.71252326268387,4.4777693437259725 L 241.35831844591735,6.148642174327944 L 235.43414307149567,11.262754622553539 L 234.69630601057634,8.354903788770295 A 417.3777534131125 417.3777534131125 0 0 1 151.8458317471293,20.705245356195462"/><text text-anchor="middle" pointer-events="none" font-size="8px" fill="#000000" x="129.27096395183065" y="23.66601769185661" transform="rotate(180 129.27096395183065 20.66601769185661)" font-family="sans-serif">FOLLOWS</text></g><g class="relationship" transform="translate(767.761193323573 302.9728501480205) rotate(367.1376743138122)"><path class="outline" fill="#4C8EDA" stroke="none" d="M 24.018736134675446,-6.953439040707552 L 24.277555179777966,-5.987513214418485 A 383.228783418315 383.228783418315 0 0 1 87.83162658496144,-17.38554036231386 L 87.73864600021228,-18.381208284293677 A 384.228783418315 384.228783418315 0 0 0 24.018736134675446,-6.953439040707552 Z M 153.75714082762858,-18.849715395595297 L 153.6783006179019,-17.85282812948634 A 383.228783418315 383.228783418315 0 0 1 217.38773737431842,-7.357939696564037 L 216.65248512961512,-4.449434214936274 L 224.29679220556707,-6.127102039194277 L 218.3680737005895,-11.235947005401055 L 217.6328214558862,-8.327441523773292 A 384.228783418315 384.228783418315 0 0 0 153.75714082762858,-18.849715395595297"/><text text-anchor="middle" pointer-events="none" font-size="8px" fill="#000000" x="120.74136032827461" y="-16.536055082845223" font-family="sans-serif">FOLLOWED_BY</text></g><g class="relationship" transform="translate(767.761193323573 302.9728501480205) rotate(419.0288770989776)"><path class="outline" fill="#4C8EDA" stroke="none" d="M 25 0.5 L 85.68440169584963 0.5 L 85.68440169584963 -0.5 L 25 -0.5 Z M 139.54768294584963 0.5 L 200.23208464169926 0.5 L 200.23208464169926 3.5 L 207.23208464169926 0 L 200.23208464169926 -3.5 L 200.23208464169926 -0.5 L 139.54768294584963 -0.5 Z"/><text text-anchor="middle" pointer-events="none" font-size="8px" fill="#000000" x="112.61604232084963" y="3" font-family="sans-serif">REFERS_TO</text></g><g class="relationship" transform="translate(767.761193323573 302.9728501480205) rotate(235.8210973148552)"><path class="outline" fill="#4C8EDA" stroke="none" d="M 25 0.5 L 54.614584613954435 0.5 L 54.614584613954435 -0.5 L 25 -0.5 Z M 108.47786586395443 0.5 L 138.09245047790887 0.5 L 138.09245047790887 3.5 L 145.09245047790887 0 L 138.09245047790887 -3.5 L 138.09245047790887 -0.5 L 108.47786586395443 -0.5 Z"/><text text-anchor="middle" pointer-events="none" font-size="8px" fill="#000000" x="81.54622523895443" y="3" transform="rotate(180 81.54622523895443 0)" font-family="sans-serif">REFERS_TO</text></g><g class="relationship" transform="translate(767.761193323573 302.9728501480205) rotate(509.02356599724163)"><path class="outline" fill="#4C8EDA" stroke="none" d="M 25 0.5 L 157.5664494530181 0.5 L 157.5664494530181 -0.5 L 25 -0.5 Z M 211.4297307030181 0.5 L 343.9961801560362 0.5 L 343.9961801560362 3.5 L 350.9961801560362 0 L 343.9961801560362 -3.5 L 343.9961801560362 -0.5 L 211.4297307030181 -0.5 Z"/><text text-anchor="middle" pointer-events="none" font-size="8px" fill="#000000" x="184.4980900780181" y="3" transform="rotate(180 184.4980900780181 0)" font-family="sans-serif">REFERS_TO</text></g><g class="relationship" transform="translate(767.761193323573 302.9728501480205) rotate(296.8769649916893)"><path class="outline" fill="#4C8EDA" stroke="none" d="M 25 0.5 L 40.82903894110434 0.5 L 40.82903894110434 -0.5 L 25 -0.5 Z M 128.62982019110433 0.5 L 144.4588591322087 0.5 L 144.4588591322087 3.5 L 151.4588591322087 0 L 144.4588591322087 -3.5 L 144.4588591322087 -0.5 L 128.62982019110433 -0.5 Z"/><text text-anchor="middle" pointer-events="none" font-size="8px" fill="#000000" x="84.72942956610434" y="3" font-family="sans-serif">EXPRESSES_INTENT</text></g><g class="relationship" transform="translate(767.761193323573 302.9728501480205) rotate(181.95883036594455)"><path class="outline" fill="#4C8EDA" stroke="none" d="M 24.018736134675446,-6.953439040707552 L 24.277555179777966,-5.987513214418485 A 423.3636464805654 423.3636464805654 0 0 1 108.55567406156302,-19.656858003048285 L 108.49592293261814,-20.655071308203958 A 424.3636464805654 424.3636464805654 0 0 0 24.018736134675446,-6.953439040707552 Z M 153.64403745474814,-20.951490734628692 L 153.5973984277582,-19.952578926128353 A 423.3636464805654 423.3636464805654 0 0 1 238.0477360134447,-7.3910188770608585 L 237.309394823879,-4.4832960072208365 L 244.9554795746657,-6.1528432463808755 L 239.03219093286563,-11.267982703514221 L 238.29384974329992,-8.3602598336742 A 424.3636464805654 424.3636464805654 0 0 0 153.64403745474814,-20.951490734628692"/><text text-anchor="middle" pointer-events="none" font-size="8px" fill="#000000" x="131.06931797576615" y="-17.90414448612205" transform="rotate(180 131.06931797576615 -20.90414448612205)" font-family="sans-serif">FOLLOWS</text></g><g class="relationship" transform="translate(1014.3695020188837 333.8542230250582) rotate(487.06985155083987)"><path class="outline" fill="#4C8EDA" stroke="none" d="M 25 0.5 L 74.99534041773441 0.5 L 74.99534041773441 -0.5 L 25 -0.5 Z M 128.8586216677344 0.5 L 178.85396208546882 0.5 L 178.85396208546882 3.5 L 185.85396208546882 0 L 178.85396208546882 -3.5 L 178.85396208546882 -0.5 L 128.8586216677344 -0.5 Z"/><text text-anchor="middle" pointer-events="none" font-size="8px" fill="#000000" x="101.92698104273441" y="3" transform="rotate(180 101.92698104273441 0)" font-family="sans-serif">REFERS_TO</text></g><g class="relationship" transform="translate(1014.3695020188837 333.8542230250582) rotate(427.53783149956826)"><path class="outline" fill="#4C8EDA" stroke="none" d="M 25 0.5 L 51.32141237614478 0.5 L 51.32141237614478 -0.5 L 25 -0.5 Z M 105.18469362614478 0.5 L 131.50610600228956 0.5 L 131.50610600228956 3.5 L 138.50610600228956 0 L 131.50610600228956 -3.5 L 131.50610600228956 -0.5 L 105.18469362614478 -0.5 Z"/><text text-anchor="middle" pointer-events="none" font-size="8px" fill="#000000" x="78.25305300114478" y="3" font-family="sans-serif">REFERS_TO</text></g><g class="relationship" transform="translate(1014.3695020188837 333.8542230250582) rotate(206.6340544831334)"><path class="outline" fill="#4C8EDA" stroke="none" d="M 25 0.5 L 160.9584778754455 0.5 L 160.9584778754455 -0.5 L 25 -0.5 Z M 214.8217591254455 0.5 L 350.780237000891 0.5 L 350.780237000891 3.5 L 357.780237000891 0 L 350.780237000891 -3.5 L 350.780237000891 -0.5 L 214.8217591254455 -0.5 Z"/><text text-anchor="middle" pointer-events="none" font-size="8px" fill="#000000" x="187.8901185004455" y="3" transform="rotate(180 187.8901185004455 0)" font-family="sans-serif">REFERS_TO</text></g><g class="relationship" transform="translate(1014.3695020188837 333.8542230250582) rotate(524.0478257339158)"><path class="outline" fill="#4C8EDA" stroke="none" d="M 25 0.5 L 265.4522011655858 0.5 L 265.4522011655858 -0.5 L 25 -0.5 Z M 319.3154824155858 0.5 L 559.7676835811716 0.5 L 559.7676835811716 3.5 L 566.7676835811716 0 L 559.7676835811716 -3.5 L 559.7676835811716 -0.5 L 319.3154824155858 -0.5 Z"/><text text-anchor="middle" pointer-events="none" font-size="8px" fill="#000000" x="292.3838417905858" y="3" transform="rotate(180 292.3838417905858 0)" font-family="sans-serif">REFERS_TO</text></g><g class="relationship" transform="translate(1014.3695020188837 333.8542230250582) rotate(228.45560533682425)"><path class="outline" fill="#4C8EDA" stroke="none" d="M 25 0.5 L 78.38023947983854 0.5 L 78.38023947983854 -0.5 L 25 -0.5 Z M 166.18102072983854 0.5 L 219.56126020967707 0.5 L 219.56126020967707 3.5 L 226.56126020967707 0 L 219.56126020967707 -3.5 L 219.56126020967707 -0.5 L 166.18102072983854 -0.5 Z"/><text text-anchor="middle" pointer-events="none" font-size="8px" fill="#000000" x="122.28063010483854" y="3" transform="rotate(180 122.28063010483854 0)" font-family="sans-serif">EXPRESSES_INTENT</text></g><g class="relationship" transform="translate(1014.3695020188837 333.8542230250582) rotate(187.13767431381223)"><path class="outline" fill="#4C8EDA" stroke="none" d="M 24.018736134675446,-6.953439040707552 L 24.277555179777966,-5.987513214418485 A 383.228783418315 383.228783418315 0 0 1 98.23394835493197,-18.214268616835 L 98.16811166495289,-19.21209902840434 A 384.228783418315 384.228783418315 0 0 0 24.018736134675446,-6.953439040707552 Z M 143.31693319186633,-19.532502333683283 L 143.26526483413596,-18.533838035328017 A 383.228783418315 383.228783418315 0 0 1 217.38773737431842,-7.357939696564037 L 216.65248512961512,-4.449434214936274 L 224.29679220556707,-6.127102039194277 L 218.3680737005895,-11.235947005401055 L 217.6328214558862,-8.327441523773292 A 384.228783418315 384.228783418315 0 0 0 143.31693319186633,-19.532502333683283"/><text text-anchor="middle" pointer-events="none" font-size="8px" fill="#000000" x="120.74136032827461" y="-16.536055082845223" transform="rotate(180 120.74136032827461 -19.536055082845223)" font-family="sans-serif">FOLLOWS</text></g></g><g class="layer nodes"><g class="node" aria-label="graph-node0" transform="translate(-261.13394651947874,516.2521522658135)"><circle class="outline" cx="0" cy="0" r="25" fill="#DA7194" stroke="#cc3c6c" stroke-width="2px"/><text class="caption" text-anchor="middle" pointer-events="none" x="0" y="5" font-size="10px" fill="#FFFFFF" font-family="sans-serif"> user</text></g><g class="node" aria-label="graph-node1" transform="translate(-492.1474242819039,450.34241584315055)"><circle class="outline" cx="0" cy="0" r="25" fill="#FFC454" stroke="#d7a013" stroke-width="2px"/><text class="caption" text-anchor="middle" pointer-events="none" x="0" y="5" font-size="10px" fill="#2A2C34" font-family="sans-serif"> 1</text></g><g class="node" aria-label="graph-node3" transform="translate(-225.98381325247544,342.16446316762443)"><circle class="outline" cx="0" cy="0" r="25" fill="#F16667" stroke="#eb2728" stroke-width="2px"/><text class="caption" text-anchor="middle" pointer-events="none" x="0" y="0" font-size="10px" fill="#FFFFFF" font-family="sans-serif"> rate the</text><text class="caption" text-anchor="middle" pointer-events="none" x="0" y="10" font-size="10px" fill="#FFFFFF" font-family="sans-serif">no…</text></g><g class="node" aria-label="graph-node2" transform="translate(-384.71842058227173,206.86393221359498)"><circle class="outline" cx="0" cy="0" r="25" fill="#569480" stroke="#447666" stroke-width="2px"/><text class="caption" text-anchor="middle" pointer-events="none" x="0" y="5" font-size="10px" fill="#FFFFFF" font-family="sans-serif"> 11/07/20…</text></g><g class="node" aria-label="graph-node5" transform="translate(-15.72025298960807,318.2617061602833)"><circle class="outline" cx="0" cy="0" r="25" fill="#F16667" stroke="#eb2728" stroke-width="2px"/><text class="caption" text-anchor="middle" pointer-events="none" x="0" y="0" font-size="10px" fill="#FFFFFF" font-family="sans-serif"> rate four</text><text class="caption" text-anchor="middle" pointer-events="none" x="0" y="10" font-size="10px" fill="#FFFFFF" font-family="sans-serif"> of 6 star</text></g><g class="node" aria-label="graph-node4" transform="translate(-97.11010537032959,171.02340906654933)"><circle class="outline" cx="0" cy="0" r="25" fill="#C990C0" stroke="#b261a5" stroke-width="2px"/><text class="caption" text-anchor="middle" pointer-events="none" x="0" y="5" font-size="10px" fill="#FFFFFF" font-family="sans-serif"> RateBook</text></g><g class="node" aria-label="graph-node6" transform="translate(233.44345915495296,306.4310905356281)"><circle class="outline" cx="0" cy="0" r="25" fill="#F16667" stroke="#eb2728" stroke-width="2px"/><text class="caption" text-anchor="middle" pointer-events="none" x="0" y="-5" font-size="10px" fill="#FFFFFF" font-family="sans-serif"> what is</text><text class="caption" text-anchor="middle" pointer-events="none" x="0" y="5" font-size="10px" fill="#FFFFFF" font-family="sans-serif"> the</text><text class="caption" text-anchor="middle" pointer-events="none" x="0" y="15" font-size="10px" fill="#FFFFFF" font-family="sans-serif"> wea…</text></g><g class="node" aria-label="graph-node10" transform="translate(498.7319900699131,293.77168403321633)"><circle class="outline" cx="0" cy="0" r="25" fill="#F16667" stroke="#eb2728" stroke-width="2px"/><text class="caption" text-anchor="middle" pointer-events="none" x="0" y="-5" font-size="10px" fill="#FFFFFF" font-family="sans-serif"> what is</text><text class="caption" text-anchor="middle" pointer-events="none" x="0" y="5" font-size="10px" fill="#FFFFFF" font-family="sans-serif"> the</text><text class="caption" text-anchor="middle" pointer-events="none" x="0" y="15" font-size="10px" fill="#FFFFFF" font-family="sans-serif"> wea…</text></g><g class="node" aria-label="graph-node9" transform="translate(672.2068616045167,162.25749420097247)"><circle class="outline" cx="0" cy="0" r="25" fill="#569480" stroke="#447666" stroke-width="2px"/><text class="caption" text-anchor="middle" pointer-events="none" x="0" y="5" font-size="10px" fill="#FFFFFF" font-family="sans-serif"> 11/07/20…</text></g><g class="node" aria-label="graph-node8" transform="translate(445.38993973558865,496.49262265729647)"><circle class="outline" cx="0" cy="0" r="25" fill="#ECB5C9" stroke="#da7298" stroke-width="2px"/><text class="caption" text-anchor="middle" pointer-events="none" x="0" y="5" font-size="10px" fill="#2A2C34" font-family="sans-serif"> austin</text></g><g class="node" aria-label="graph-node7" transform="translate(146.15405184987924,162.38927050864797)"><circle class="outline" cx="0" cy="0" r="25" fill="#C990C0" stroke="#b261a5" stroke-width="2px"/><text class="caption" text-anchor="middle" pointer-events="none" x="0" y="5" font-size="10px" fill="#FFFFFF" font-family="sans-serif"> GetWeat…</text></g><g class="node" aria-label="graph-node11" transform="translate(767.761193323573,302.9728501480205)"><circle class="outline" cx="0" cy="0" r="25" fill="#F16667" stroke="#eb2728" stroke-width="2px"/><text class="caption" text-anchor="middle" pointer-events="none" x="0" y="0" font-size="10px" fill="#FFFFFF" font-family="sans-serif"> book a</text><text class="caption" text-anchor="middle" pointer-events="none" x="0" y="10" font-size="10px" fill="#FFFFFF" font-family="sans-serif"> restau…</text></g><g class="node" aria-label="graph-node14" transform="translate(1014.3695020188837,333.8542230250582)"><circle class="outline" cx="0" cy="0" r="25" fill="#F16667" stroke="#eb2728" stroke-width="2px"/><text class="caption" text-anchor="middle" pointer-events="none" x="0" y="-5" font-size="10px" fill="#FFFFFF" font-family="sans-serif"> book a</text><text class="caption" text-anchor="middle" pointer-events="none" x="0" y="5" font-size="10px" fill="#FFFFFF" font-family="sans-serif"> restaurant</text><text class="caption" text-anchor="middle" pointer-events="none" x="0" y="15" font-size="10px" fill="#FFFFFF" font-family="sans-serif"> f</text></g><g class="node" aria-label="graph-node13" transform="translate(887.2692167305335,502.09485666259627)"><circle class="outline" cx="0" cy="0" r="25" fill="#8DCC93" stroke="#5db665" stroke-width="2px"/><text class="caption" text-anchor="middle" pointer-events="none" x="0" y="5" font-size="10px" fill="#2A2C34" font-family="sans-serif"> restaurant</text></g><g class="node" aria-label="graph-node12" transform="translate(847.5340327678055,145.57519116528533)"><circle class="outline" cx="0" cy="0" r="25" fill="#C990C0" stroke="#b261a5" stroke-width="2px"/><text class="caption" text-anchor="middle" pointer-events="none" x="0" y="5" font-size="10px" fill="#FFFFFF" font-family="sans-serif"> BookRe…</text></g><g class="node" aria-label="graph-node15" transform="translate(1076.8408237449335,484.95544956485946)"><circle class="outline" cx="0" cy="0" r="25" fill="#A5ABB6" stroke="#9AA1AC" stroke-width="2px"/><text class="caption" text-anchor="middle" pointer-events="none" x="0" y="5" font-size="10px" fill="#FFFFFF" font-family="sans-serif"> 4</text></g></g></svg>